<?xml version="1.0" encoding="utf-8"?>
<!-- Generator: Adobe Illustrator 25.2.3, SVG Export Plug-In . SVG Version: 6.00 Build 0)  -->
<svg version="1.1" id="Capa_1" xmlns="http://www.w3.org/2000/svg" xmlns:xlink="http://www.w3.org/1999/xlink" x="0px" y="0px"
	 viewBox="0 0 1155.4 210.4" style="enable-background:new 0 0 1155.4 210.4;" xml:space="preserve">
<path d="M1146.7,1.1h-39.2c-4.4,0-7.6,3.3-7.6,7.6v63.2c0,4.4-3.3,7.6-7.6,7.6h-89.4c-4.4,0-7.6-3.3-7.6-7.6V8.7
	c0-4.4-3.3-7.6-7.6-7.6h-38.1c-4.4,0-7.6,3.3-7.6,7.6v85c0,4.4-6.5,6.5-8.7,2.2c-10.9-21.8-32.7-67.6-42.5-89.4
	c-1.1-3.3-2.2-5.4-5.4-5.4h-41.4c-3.3,0-5.4,1.1-6.5,4.4c-24,50.1-46.9,101.3-70.8,151.5c-1.1,2.2-3.3,4.4-6.5,4.4h-42.5
	c-4.4,0-7.6-3.3-7.6-7.6V7.6c0-4.4-3.3-7.6-7.6-7.6h-40.3c-4.4,0-7.6,3.3-7.6,7.6v22.9c0,6.5-7.6,9.8-12,5.4
	c-3.3-3.3-6.5-6.5-10.9-9.8c-30.5-24-65.4-29.4-101.3-21.8c-20.7,4.4-37.1,13.1-49,24c-4.4,5.4-12,2.2-12-4.4V8.7
	c0-4.4-3.3-7.6-6.5-7.6h-37.1c-4.4,0-7.6,3.3-7.6,7.6c0,7.6,0,13.1,0,22.9c0,28.3,0,56.7-1.1,86.1c-1.1,22.9-13.1,38.1-32.7,42.5
	c-7.6,2.2-16.3,2.2-24,1.1c-24-2.2-37.1-15.3-40.3-39.2c-1.1-6.5-1.1-12-1.1-18.5V8.7c0-4.4-3.3-7.6-7.6-7.6h-42.5
	c-3.3,0-5.4,2.2-6.5,5.4l-30.5,93.7c-2.2,6.5-12,6.5-13.1,0c-9.8-31.6-20.7-63.2-30.5-93.7c-1.1-3.3-3.3-5.4-6.5-5.4h-44.7
	c-2.2,0-4.4,2.2-5.4,4.4c-9.8,31.6-20.7,62.1-30.5,94.8c-2.2,6.5-12,6.5-14.2,0C76.5,68.7,65.6,37.1,55.8,6.5
	c-1.1-3.3-3.3-5.4-6.5-5.4H7.8c-5.4,0-8.7,5.4-7.6,9.8c5.4,15.3,10.9,30.5,15.3,45.8l46.9,139.5c1.1,3.3,3.3,4.4,6.5,4.4h48
	c3.3,0,5.4-2.2,6.5-5.4l28.3-81.7c2.2-6.5,12-6.5,14.2,0c9.8,28.3,18.5,55.6,27.2,82.8c1.1,3.3,3.3,5.4,6.5,5.4h14.2
	c8.7,0,15.3,0,26.2,0h7.6c3.3,0,5.4-2.2,6.5-4.4l10.9-32.7c2.2-5.4,9.8-6.5,13.1-1.1c10.9,16.3,28.3,28.3,49,33.8
	c9.8,2.2,19.6,4.4,31.6,4.4c17.4,0,30.5-1.1,45.8-4.4c21.8-5.4,38.1-17.4,49-33.8c2.2-3.3,7.6-3.3,9.8,0
	c21.8,33.8,55.6,45.8,93.7,46.9c32.7,1.1,63.2-12,83.9-33.8c4.4-4.4,13.1-2.2,13.1,4.4V194c0,4.4,3.3,7.6,7.6,7.6h128.6
	c3.3,0,5.4-2.2,6.5-4.4l15.3-34.9c1.1-2.2,3.3-4.4,6.5-4.4c27.2,0,63.2,0,90.5,0c3.3,0,5.4,2.2,6.5,4.4l14.2,36
	c1.1,2.2,3.3,4.4,6.5,4.4h5.4h45.8c4.4,0,7.6-3.3,7.6-7.6v-66.5c0-4.4,3.3-7.6,7.6-7.6h91.5c4.4,0,7.6,3.3,7.6,7.6v66.5
	c0,4.4,3.3,7.6,7.6,7.6h38.1c4.4,0,7.6-3.3,7.6-7.6V9.8C1154.3,4.4,1151,1.1,1146.7,1.1z M572.3,160.2c-40.3,9.8-69.7-18.5-65.4-61
	c2.2-21.8,12-39.2,33.8-46.9c37.1-12,68.7,14.2,68.7,54.5C609.4,134,595.2,154.7,572.3,160.2z M888.4,122.1h-49
	c-4.4,0-6.5-4.4-5.4-7.6c8.7-18.5,16.3-37.1,25.1-56.7c2.2-4.4,8.7-4.4,10.9,0c8.7,19.6,16.3,38.1,25.1,56.7
	C896,117.7,892.7,122.1,888.4,122.1z"/>
</svg>
